<mxfile host="app.diagrams.net" modified="2022-01-21T01:09:15.601Z" agent="5.0 (Windows NT 10.0; Win64; x64) AppleWebKit/537.36 (KHTML, like Gecko) Chrome/97.0.4692.71 Safari/537.36" etag="idVjadopWkaPVQt-ibzU" version="16.4.3" type="github" pages="2">
  <diagram id="C5RBs43oDa-KdzZeNtuy" name="studentIteraction1">
    <mxGraphModel dx="787" dy="1585" grid="0" gridSize="10" guides="1" tooltips="1" connect="1" arrows="1" fold="1" page="1" pageScale="1" pageWidth="827" pageHeight="1169" math="0" shadow="1">
      <root>
        <mxCell id="WIyWlLk6GJQsqaUBKTNV-0" />
        <mxCell id="WIyWlLk6GJQsqaUBKTNV-1" parent="WIyWlLk6GJQsqaUBKTNV-0" />
        <mxCell id="qGgScWs7adqSkE698t_Z-27" value="" style="edgeStyle=orthogonalEdgeStyle;rounded=0;orthogonalLoop=1;jettySize=auto;html=1;fontColor=default;entryX=0.5;entryY=0;entryDx=0;entryDy=0;" edge="1" parent="WIyWlLk6GJQsqaUBKTNV-1" source="qGgScWs7adqSkE698t_Z-3" target="qGgScWs7adqSkE698t_Z-5">
          <mxGeometry relative="1" as="geometry">
            <mxPoint x="274" y="-1090" as="targetPoint" />
            <Array as="points">
              <mxPoint x="315" y="-1090" />
            </Array>
          </mxGeometry>
        </mxCell>
        <mxCell id="qGgScWs7adqSkE698t_Z-3" value="Start" style="rounded=1;whiteSpace=wrap;html=1;arcSize=50;fillColor=#33FF33;strokeColor=#000000;strokeWidth=2;" vertex="1" parent="WIyWlLk6GJQsqaUBKTNV-1">
          <mxGeometry x="354" y="-1120" width="120" height="60" as="geometry" />
        </mxCell>
        <mxCell id="qGgScWs7adqSkE698t_Z-4" value="Stop" style="rounded=1;whiteSpace=wrap;html=1;arcSize=50;fillColor=#FF3333;strokeColor=#000000;strokeWidth=2;" vertex="1" parent="WIyWlLk6GJQsqaUBKTNV-1">
          <mxGeometry x="354" y="-81" width="120" height="60" as="geometry" />
        </mxCell>
        <mxCell id="qGgScWs7adqSkE698t_Z-25" value="" style="edgeStyle=orthogonalEdgeStyle;rounded=0;orthogonalLoop=1;jettySize=auto;html=1;fontColor=default;" edge="1" parent="WIyWlLk6GJQsqaUBKTNV-1" source="qGgScWs7adqSkE698t_Z-5" target="qGgScWs7adqSkE698t_Z-6">
          <mxGeometry relative="1" as="geometry" />
        </mxCell>
        <mxCell id="qGgScWs7adqSkE698t_Z-5" value="String firstName, lastName" style="shape=internalStorage;whiteSpace=wrap;html=1;backgroundOutline=1;strokeColor=#000000;strokeWidth=2;fillColor=#fff2cc;perimeterSpacing=0;rounded=0;shadow=0;glass=0;sketch=0;align=center;labelPosition=center;verticalLabelPosition=middle;verticalAlign=middle;fontColor=default;labelBackgroundColor=none;spacingLeft=22;spacingTop=10;" vertex="1" parent="WIyWlLk6GJQsqaUBKTNV-1">
          <mxGeometry x="260" y="-1040" width="110" height="80" as="geometry" />
        </mxCell>
        <mxCell id="qGgScWs7adqSkE698t_Z-28" value="" style="edgeStyle=orthogonalEdgeStyle;rounded=0;orthogonalLoop=1;jettySize=auto;html=1;fontColor=default;" edge="1" parent="WIyWlLk6GJQsqaUBKTNV-1" source="qGgScWs7adqSkE698t_Z-6" target="qGgScWs7adqSkE698t_Z-7">
          <mxGeometry relative="1" as="geometry">
            <Array as="points">
              <mxPoint x="515" y="-950" />
              <mxPoint x="414" y="-950" />
            </Array>
          </mxGeometry>
        </mxCell>
        <mxCell id="qGgScWs7adqSkE698t_Z-6" value="Number grade1, grade2, grade3, average" style="shape=internalStorage;whiteSpace=wrap;html=1;backgroundOutline=1;strokeColor=#000000;strokeWidth=2;fillColor=#fff2cc;perimeterSpacing=0;rounded=0;shadow=0;glass=0;sketch=0;align=center;labelPosition=center;verticalLabelPosition=middle;verticalAlign=middle;fontColor=default;labelBackgroundColor=none;spacingLeft=22;spacingTop=10;" vertex="1" parent="WIyWlLk6GJQsqaUBKTNV-1">
          <mxGeometry x="460" y="-1040" width="110" height="80" as="geometry" />
        </mxCell>
        <mxCell id="qGgScWs7adqSkE698t_Z-24" value="" style="edgeStyle=orthogonalEdgeStyle;rounded=0;orthogonalLoop=1;jettySize=auto;html=1;fontColor=default;" edge="1" parent="WIyWlLk6GJQsqaUBKTNV-1" source="qGgScWs7adqSkE698t_Z-7" target="qGgScWs7adqSkE698t_Z-11">
          <mxGeometry relative="1" as="geometry" />
        </mxCell>
        <mxCell id="qGgScWs7adqSkE698t_Z-7" value="&lt;div&gt;&lt;span&gt;Print (&quot;Hello! Please, inform your first and last name:&quot;)&lt;/span&gt;&lt;/div&gt;" style="shape=parallelogram;perimeter=parallelogramPerimeter;whiteSpace=wrap;html=1;fixedSize=1;rounded=0;shadow=0;glass=0;labelBackgroundColor=none;sketch=0;strokeColor=#82b366;strokeWidth=2;fillColor=#d5e8d4;align=center;spacingLeft=20;spacingRight=13;" vertex="1" parent="WIyWlLk6GJQsqaUBKTNV-1">
          <mxGeometry x="314" y="-930" width="200" height="60" as="geometry" />
        </mxCell>
        <mxCell id="qGgScWs7adqSkE698t_Z-21" value="" style="edgeStyle=orthogonalEdgeStyle;rounded=0;orthogonalLoop=1;jettySize=auto;html=1;fontColor=default;" edge="1" parent="WIyWlLk6GJQsqaUBKTNV-1" source="qGgScWs7adqSkE698t_Z-9" target="qGgScWs7adqSkE698t_Z-13">
          <mxGeometry relative="1" as="geometry">
            <Array as="points">
              <mxPoint x="413" y="-670" />
              <mxPoint x="210" y="-670" />
            </Array>
          </mxGeometry>
        </mxCell>
        <mxCell id="qGgScWs7adqSkE698t_Z-9" value="&lt;div&gt;&lt;span&gt;Print (&quot;Hello, &quot; firstName &amp;amp; &quot; &quot; &amp;amp; &quot;lastName&quot; &amp;amp;&quot;!Please, inform your 3 exam grades:&quot;)&lt;/span&gt;&lt;/div&gt;" style="shape=parallelogram;perimeter=parallelogramPerimeter;whiteSpace=wrap;html=1;fixedSize=1;rounded=0;shadow=0;glass=0;labelBackgroundColor=none;sketch=0;strokeColor=#82b366;strokeWidth=2;fillColor=#d5e8d4;align=center;spacingLeft=20;spacingRight=13;" vertex="1" parent="WIyWlLk6GJQsqaUBKTNV-1">
          <mxGeometry x="313" y="-750" width="200" height="60" as="geometry" />
        </mxCell>
        <mxCell id="qGgScWs7adqSkE698t_Z-40" style="edgeStyle=orthogonalEdgeStyle;rounded=0;orthogonalLoop=1;jettySize=auto;html=1;exitX=0.5;exitY=1;exitDx=0;exitDy=0;entryX=0.501;entryY=0.016;entryDx=0;entryDy=0;entryPerimeter=0;fontColor=default;" edge="1" parent="WIyWlLk6GJQsqaUBKTNV-1" source="qGgScWs7adqSkE698t_Z-10" target="qGgScWs7adqSkE698t_Z-33">
          <mxGeometry relative="1" as="geometry" />
        </mxCell>
        <mxCell id="qGgScWs7adqSkE698t_Z-10" value="&lt;div&gt;&lt;span&gt;Print (&quot;Okay, &quot; &amp;amp; firstName &amp;amp; &quot;.&quot; &amp;amp; &quot;You scored &quot; &amp;amp; average &amp;amp; &quot; !&quot;)&lt;/span&gt;&lt;/div&gt;" style="shape=parallelogram;perimeter=parallelogramPerimeter;whiteSpace=wrap;html=1;fixedSize=1;rounded=0;shadow=0;glass=0;labelBackgroundColor=none;sketch=0;strokeColor=#82b366;strokeWidth=2;fillColor=#d5e8d4;align=center;spacingLeft=20;spacingRight=13;" vertex="1" parent="WIyWlLk6GJQsqaUBKTNV-1">
          <mxGeometry x="314" y="-450" width="200" height="60" as="geometry" />
        </mxCell>
        <mxCell id="qGgScWs7adqSkE698t_Z-22" value="" style="edgeStyle=orthogonalEdgeStyle;rounded=0;orthogonalLoop=1;jettySize=auto;html=1;fontColor=default;" edge="1" parent="WIyWlLk6GJQsqaUBKTNV-1" source="qGgScWs7adqSkE698t_Z-11" target="qGgScWs7adqSkE698t_Z-12">
          <mxGeometry relative="1" as="geometry" />
        </mxCell>
        <mxCell id="qGgScWs7adqSkE698t_Z-11" value="&lt;div&gt;&lt;span&gt;Read firstName&lt;/span&gt;&lt;/div&gt;" style="shape=parallelogram;perimeter=parallelogramPerimeter;whiteSpace=wrap;html=1;fixedSize=1;rounded=0;shadow=0;glass=0;labelBackgroundColor=none;sketch=0;strokeColor=#6c8ebf;strokeWidth=2;fillColor=#dae8fc;align=center;spacingLeft=20;spacingRight=13;" vertex="1" parent="WIyWlLk6GJQsqaUBKTNV-1">
          <mxGeometry x="204" y="-840" width="200" height="60" as="geometry" />
        </mxCell>
        <mxCell id="qGgScWs7adqSkE698t_Z-23" value="" style="edgeStyle=orthogonalEdgeStyle;rounded=0;orthogonalLoop=1;jettySize=auto;html=1;fontColor=default;" edge="1" parent="WIyWlLk6GJQsqaUBKTNV-1" source="qGgScWs7adqSkE698t_Z-12" target="qGgScWs7adqSkE698t_Z-9">
          <mxGeometry relative="1" as="geometry" />
        </mxCell>
        <mxCell id="qGgScWs7adqSkE698t_Z-12" value="&lt;div&gt;&lt;span&gt;Read lastName&lt;/span&gt;&lt;/div&gt;" style="shape=parallelogram;perimeter=parallelogramPerimeter;whiteSpace=wrap;html=1;fixedSize=1;rounded=0;shadow=0;glass=0;labelBackgroundColor=none;sketch=0;strokeColor=#6c8ebf;strokeWidth=2;fillColor=#dae8fc;align=center;spacingLeft=20;spacingRight=13;" vertex="1" parent="WIyWlLk6GJQsqaUBKTNV-1">
          <mxGeometry x="424" y="-840" width="200" height="60" as="geometry" />
        </mxCell>
        <mxCell id="qGgScWs7adqSkE698t_Z-18" style="edgeStyle=orthogonalEdgeStyle;rounded=0;orthogonalLoop=1;jettySize=auto;html=1;exitX=0.5;exitY=1;exitDx=0;exitDy=0;entryX=0.25;entryY=1;entryDx=0;entryDy=0;fontColor=default;" edge="1" parent="WIyWlLk6GJQsqaUBKTNV-1" source="qGgScWs7adqSkE698t_Z-13" target="qGgScWs7adqSkE698t_Z-14">
          <mxGeometry relative="1" as="geometry" />
        </mxCell>
        <mxCell id="qGgScWs7adqSkE698t_Z-13" value="&lt;div&gt;&lt;span&gt;Read grade1&lt;/span&gt;&lt;/div&gt;" style="shape=parallelogram;perimeter=parallelogramPerimeter;whiteSpace=wrap;html=1;fixedSize=1;rounded=0;shadow=0;glass=0;labelBackgroundColor=none;sketch=0;strokeColor=#6c8ebf;strokeWidth=2;fillColor=#dae8fc;align=center;spacingLeft=20;spacingRight=13;" vertex="1" parent="WIyWlLk6GJQsqaUBKTNV-1">
          <mxGeometry x="123" y="-660" width="200" height="60" as="geometry" />
        </mxCell>
        <mxCell id="qGgScWs7adqSkE698t_Z-19" style="edgeStyle=orthogonalEdgeStyle;rounded=0;orthogonalLoop=1;jettySize=auto;html=1;exitX=0.5;exitY=1;exitDx=0;exitDy=0;entryX=0.391;entryY=1.015;entryDx=0;entryDy=0;entryPerimeter=0;fontColor=default;" edge="1" parent="WIyWlLk6GJQsqaUBKTNV-1" source="qGgScWs7adqSkE698t_Z-14" target="qGgScWs7adqSkE698t_Z-15">
          <mxGeometry relative="1" as="geometry" />
        </mxCell>
        <mxCell id="qGgScWs7adqSkE698t_Z-14" value="&lt;div&gt;&lt;span&gt;Read grade2&lt;/span&gt;&lt;/div&gt;" style="shape=parallelogram;perimeter=parallelogramPerimeter;whiteSpace=wrap;html=1;fixedSize=1;rounded=0;shadow=0;glass=0;labelBackgroundColor=none;sketch=0;strokeColor=#6c8ebf;strokeWidth=2;fillColor=#dae8fc;align=center;spacingLeft=20;spacingRight=13;" vertex="1" parent="WIyWlLk6GJQsqaUBKTNV-1">
          <mxGeometry x="313" y="-660" width="200" height="60" as="geometry" />
        </mxCell>
        <mxCell id="qGgScWs7adqSkE698t_Z-32" style="edgeStyle=orthogonalEdgeStyle;rounded=0;orthogonalLoop=1;jettySize=auto;html=1;exitX=0.5;exitY=1;exitDx=0;exitDy=0;entryX=1;entryY=0.5;entryDx=0;entryDy=0;fontColor=default;" edge="1" parent="WIyWlLk6GJQsqaUBKTNV-1" source="qGgScWs7adqSkE698t_Z-15" target="qGgScWs7adqSkE698t_Z-30">
          <mxGeometry relative="1" as="geometry" />
        </mxCell>
        <mxCell id="qGgScWs7adqSkE698t_Z-15" value="&lt;div&gt;&lt;span&gt;Read grade3&lt;/span&gt;&lt;/div&gt;" style="shape=parallelogram;perimeter=parallelogramPerimeter;whiteSpace=wrap;html=1;fixedSize=1;rounded=0;shadow=0;glass=0;labelBackgroundColor=none;sketch=0;strokeColor=#6c8ebf;strokeWidth=2;fillColor=#dae8fc;align=center;spacingLeft=20;spacingRight=13;" vertex="1" parent="WIyWlLk6GJQsqaUBKTNV-1">
          <mxGeometry x="503" y="-660" width="200" height="60" as="geometry" />
        </mxCell>
        <mxCell id="qGgScWs7adqSkE698t_Z-31" value="" style="edgeStyle=orthogonalEdgeStyle;rounded=0;orthogonalLoop=1;jettySize=auto;html=1;fontColor=default;" edge="1" parent="WIyWlLk6GJQsqaUBKTNV-1" source="qGgScWs7adqSkE698t_Z-30" target="qGgScWs7adqSkE698t_Z-10">
          <mxGeometry relative="1" as="geometry">
            <Array as="points">
              <mxPoint x="414" y="-470" />
              <mxPoint x="414" y="-470" />
            </Array>
          </mxGeometry>
        </mxCell>
        <mxCell id="qGgScWs7adqSkE698t_Z-30" value="average = (grade1 + grade2 + grade3) / 3" style="shape=process;whiteSpace=wrap;html=1;backgroundOutline=1;rounded=0;shadow=0;glass=0;labelBackgroundColor=none;sketch=0;fontColor=default;strokeColor=#000000;strokeWidth=2;fillColor=#FFFF33;" vertex="1" parent="WIyWlLk6GJQsqaUBKTNV-1">
          <mxGeometry x="320" y="-550" width="200" height="60" as="geometry" />
        </mxCell>
        <mxCell id="qGgScWs7adqSkE698t_Z-33" value="Is average&amp;gt;= 70 ?" style="rhombus;whiteSpace=wrap;html=1;rounded=0;shadow=0;glass=0;labelBackgroundColor=none;sketch=0;fontColor=default;strokeColor=#000000;strokeWidth=2;fillColor=#FFFF33;" vertex="1" parent="WIyWlLk6GJQsqaUBKTNV-1">
          <mxGeometry x="323" y="-355" width="179" height="106" as="geometry" />
        </mxCell>
        <mxCell id="qGgScWs7adqSkE698t_Z-64" style="edgeStyle=orthogonalEdgeStyle;rounded=0;orthogonalLoop=1;jettySize=auto;html=1;exitX=0.5;exitY=1;exitDx=0;exitDy=0;entryX=1;entryY=0.5;entryDx=0;entryDy=0;fontColor=#FF6666;startArrow=none;startFill=0;endArrow=classic;endFill=1;" edge="1" parent="WIyWlLk6GJQsqaUBKTNV-1" source="qGgScWs7adqSkE698t_Z-34" target="qGgScWs7adqSkE698t_Z-61">
          <mxGeometry relative="1" as="geometry" />
        </mxCell>
        <mxCell id="qGgScWs7adqSkE698t_Z-34" value="Print (&quot;Unfortunately, you didn&#39;t pass! Let&#39;s do the final exam&quot;)" style="shape=parallelogram;perimeter=parallelogramPerimeter;whiteSpace=wrap;html=1;fixedSize=1;fillColor=#f8cecc;strokeColor=#b85450;rounded=0;shadow=0;glass=0;labelBackgroundColor=none;sketch=0;strokeWidth=2;spacingLeft=22;spacingRight=14;" vertex="1" parent="WIyWlLk6GJQsqaUBKTNV-1">
          <mxGeometry x="489" y="-238" width="184" height="60" as="geometry" />
        </mxCell>
        <mxCell id="qGgScWs7adqSkE698t_Z-63" style="edgeStyle=orthogonalEdgeStyle;rounded=0;orthogonalLoop=1;jettySize=auto;html=1;exitX=0.5;exitY=1;exitDx=0;exitDy=0;entryX=0;entryY=0.5;entryDx=0;entryDy=0;fontColor=#FF6666;startArrow=none;startFill=0;endArrow=classic;endFill=1;" edge="1" parent="WIyWlLk6GJQsqaUBKTNV-1" source="qGgScWs7adqSkE698t_Z-36" target="qGgScWs7adqSkE698t_Z-61">
          <mxGeometry relative="1" as="geometry" />
        </mxCell>
        <mxCell id="qGgScWs7adqSkE698t_Z-36" value="Print (&quot;You passed! Congratulations!&quot;)" style="shape=parallelogram;perimeter=parallelogramPerimeter;whiteSpace=wrap;html=1;fixedSize=1;fillColor=#d5e8d4;strokeColor=#82b366;rounded=0;shadow=0;glass=0;labelBackgroundColor=none;sketch=0;strokeWidth=2;" vertex="1" parent="WIyWlLk6GJQsqaUBKTNV-1">
          <mxGeometry x="148" y="-238" width="186" height="60" as="geometry" />
        </mxCell>
        <mxCell id="qGgScWs7adqSkE698t_Z-49" value="" style="endArrow=classic;html=1;rounded=0;fontColor=#97D077;exitX=0;exitY=0.5;exitDx=0;exitDy=0;entryX=0.5;entryY=0;entryDx=0;entryDy=0;fillColor=#d5e8d4;strokeColor=#82b366;" edge="1" parent="WIyWlLk6GJQsqaUBKTNV-1" source="qGgScWs7adqSkE698t_Z-33" target="qGgScWs7adqSkE698t_Z-36">
          <mxGeometry relative="1" as="geometry">
            <mxPoint x="204" y="-293" as="sourcePoint" />
            <mxPoint x="364" y="-293" as="targetPoint" />
          </mxGeometry>
        </mxCell>
        <mxCell id="qGgScWs7adqSkE698t_Z-50" value="Yes" style="edgeLabel;resizable=0;html=1;align=center;verticalAlign=middle;rounded=0;shadow=0;glass=0;labelBackgroundColor=none;sketch=0;fontColor=#97D077;strokeColor=#000000;strokeWidth=2;fillColor=#FFFF33;spacingBottom=15;spacingRight=18;" connectable="0" vertex="1" parent="qGgScWs7adqSkE698t_Z-49">
          <mxGeometry relative="1" as="geometry" />
        </mxCell>
        <mxCell id="qGgScWs7adqSkE698t_Z-52" value="" style="edgeLabel;resizable=0;html=1;align=right;verticalAlign=bottom;rounded=0;shadow=0;glass=0;labelBackgroundColor=none;sketch=0;fontColor=default;strokeColor=#000000;strokeWidth=2;fillColor=#FFFF33;" connectable="0" vertex="1" parent="qGgScWs7adqSkE698t_Z-49">
          <mxGeometry x="1" relative="1" as="geometry" />
        </mxCell>
        <mxCell id="qGgScWs7adqSkE698t_Z-53" value="" style="endArrow=classic;html=1;rounded=0;fontColor=default;exitX=1;exitY=0.5;exitDx=0;exitDy=0;entryX=0.5;entryY=0;entryDx=0;entryDy=0;fillColor=#f8cecc;strokeColor=#b85450;" edge="1" parent="WIyWlLk6GJQsqaUBKTNV-1" source="qGgScWs7adqSkE698t_Z-33" target="qGgScWs7adqSkE698t_Z-34">
          <mxGeometry relative="1" as="geometry">
            <mxPoint x="618.5" y="-302.2899999999998" as="sourcePoint" />
            <mxPoint x="501.9999999999999" y="-302.2899999999998" as="targetPoint" />
          </mxGeometry>
        </mxCell>
        <mxCell id="qGgScWs7adqSkE698t_Z-54" value="No" style="edgeLabel;resizable=0;html=1;align=center;verticalAlign=middle;rounded=0;shadow=0;glass=0;labelBackgroundColor=none;sketch=0;fontColor=#FF6666;strokeColor=#000000;strokeWidth=2;fillColor=#FFFF33;spacingBottom=15;spacingLeft=13;" connectable="0" vertex="1" parent="qGgScWs7adqSkE698t_Z-53">
          <mxGeometry relative="1" as="geometry" />
        </mxCell>
        <mxCell id="qGgScWs7adqSkE698t_Z-55" value="" style="edgeLabel;resizable=0;html=1;align=right;verticalAlign=bottom;rounded=0;shadow=0;glass=0;labelBackgroundColor=none;sketch=0;fontColor=default;strokeColor=#000000;strokeWidth=2;fillColor=#FFFF33;" connectable="0" vertex="1" parent="qGgScWs7adqSkE698t_Z-53">
          <mxGeometry x="1" relative="1" as="geometry" />
        </mxCell>
        <mxCell id="qGgScWs7adqSkE698t_Z-62" value="" style="edgeStyle=orthogonalEdgeStyle;rounded=0;orthogonalLoop=1;jettySize=auto;html=1;fontColor=#FF6666;startArrow=none;startFill=0;endArrow=classic;endFill=1;" edge="1" parent="WIyWlLk6GJQsqaUBKTNV-1" source="qGgScWs7adqSkE698t_Z-61" target="qGgScWs7adqSkE698t_Z-4">
          <mxGeometry relative="1" as="geometry" />
        </mxCell>
        <mxCell id="qGgScWs7adqSkE698t_Z-61" value="" style="ellipse;whiteSpace=wrap;html=1;aspect=fixed;rounded=0;shadow=0;glass=0;labelBackgroundColor=none;sketch=0;fontColor=#FF6666;strokeColor=#000000;strokeWidth=2;fillColor=#FFFF33;" vertex="1" parent="WIyWlLk6GJQsqaUBKTNV-1">
          <mxGeometry x="406" y="-140" width="16" height="16" as="geometry" />
        </mxCell>
      </root>
    </mxGraphModel>
  </diagram>
  <diagram id="W9nZrneCAUr1fCy4ZqqV" name="Page-2">
    <mxGraphModel dx="1102" dy="582" grid="0" gridSize="10" guides="1" tooltips="1" connect="1" arrows="1" fold="1" page="1" pageScale="1" pageWidth="827" pageHeight="1169" math="0" shadow="0">
      <root>
        <mxCell id="e8oWBUrBlCWtgAs1R7jn-0" />
        <mxCell id="e8oWBUrBlCWtgAs1R7jn-1" parent="e8oWBUrBlCWtgAs1R7jn-0" />
      </root>
    </mxGraphModel>
  </diagram>
</mxfile>
